<svg xmlns="http://www.w3.org/2000/svg" width="800" height="800" fill="none" viewBox="0 0 24 24"><path stroke="#000" stroke-linecap="round" stroke-linejoin="round" stroke-width="1.5" d="M20 11a8 8 0 1 0-16 0"/><path stroke="#000" stroke-width="1.5" d="M2 15.438v-1.876a2 2 0 0 1 1.515-1.94l1.74-.436a.6.6 0 0 1 .745.582v5.463a.6.6 0 0 1-.746.583l-1.74-.435A2 2 0 0 1 2 15.439ZM22 15.438v-1.876a2 2 0 0 0-1.515-1.94l-1.74-.436a.6.6 0 0 0-.745.582v5.463a.6.6 0 0 0 .745.583l1.74-.435A2 2 0 0 0 22 15.439ZM20 18v.5a2 2 0 0 1-2 2h-3.5"/><path stroke="#000" stroke-width="1.5" d="M13.5 22h-3a1.5 1.5 0 0 1 0-3h3a1.5 1.5 0 0 1 0 3Z"/></svg>
