<svg xmlns="http://www.w3.org/2000/svg" xml:space="preserve" width="800" height="800" version="1.0" viewBox="0 0 64 64"><g fill="#231F20"><path d="m63.029 42.285-13.08-7.848c-.175 4.299-.787 8.26-1.494 11.562H64v-2c0-.702-.368-1.353-.971-1.714zM46.905 52H62a2 2 0 0 0 2-2v-2H47.999a71.624 71.624 0 0 1-1.094 4zM14.051 34.438.971 42.286A1.995 1.995 0 0 0 0 44v2h15.545c-.706-3.303-1.319-7.263-1.494-11.562zM0 48v2a2 2 0 0 0 2 2h15.095a70.844 70.844 0 0 1-1.093-4H0zM32 64c2.06 0 4.239-2.343 4.837-6h-9.672c.598 3.656 2.775 6 4.835 6zM33.109.336a1.996 1.996 0 0 0-2.218 0C23.692 5.135 16 15.974 16 32c0 4.399.516 8.508 1.181 12H46.82c.664-3.492 1.18-7.601 1.18-12C48 15.974 40.308 5.135 33.109.336zM32 30a6 6 0 0 1 0-12 6 6 0 0 1 0 12z"/><circle cx="32" cy="24" r="4"/><path d="M20.143 54.742A2 2 0 0 0 22 56h20a2 2 0 0 0 1.857-1.258c.097-.24 1.427-3.62 2.554-8.742H17.589c1.127 5.122 2.457 8.502 2.554 8.742z"/></g></svg>
