<svg xmlns="http://www.w3.org/2000/svg" xml:space="preserve" width="800" height="800" viewBox="0 0 16.683 16.683"><path d="M14.973 8.04c-.408-.156-.963-.254-1.554-.281 1.058-.447 1.649-1.448 1.32-2.235-.331-.79-1.465-1.07-2.528-.626a4.94 4.94 0 0 0-.906.52c.524-.56.951-1.191 1.149-1.71A2.67 2.67 0 0 0 10.921.261a2.672 2.672 0 0 0-3.447 1.535 4.28 4.28 0 0 0-.231.98C6.753 1.875 5.85 1.397 5.124 1.7c-.79.33-1.07 1.466-.625 2.528.03.071.066.148.104.224a4.728 4.728 0 0 0-.978-.551A2.67 2.67 0 0 0 .178 5.435a2.671 2.671 0 0 0 1.534 3.448c.304.116.691.198 1.113.247-1.04.453-1.618 1.441-1.292 2.222.33.79 1.465 1.071 2.528.626l.055-.025a4.735 4.735 0 0 0-.583 1.02 2.673 2.673 0 0 0 1.534 3.449 2.673 2.673 0 0 0 3.447-1.534c.173-.448.273-1.072.287-1.729.033.101.067.196.103.281.444 1.064 1.449 1.66 2.239 1.329.79-.33 1.07-1.464.626-2.527l-.006-.012c.443.358.902.642 1.296.793a2.675 2.675 0 0 0 3.449-1.534 2.678 2.678 0 0 0-1.535-3.449zm-2.608-2.776c.79-.33 1.634-.121 1.88.465.246.588-.198 1.335-.989 1.667-.579.242-1.806.453-2.517.316a2.33 2.33 0 0 0-.411-.811c.368-.612 1.435-1.385 2.037-1.637zM8.111 2.041A1.989 1.989 0 0 1 10.676.899a1.989 1.989 0 0 1 1.142 2.564c-.326.847-1.565 2.364-2.562 2.634a2.492 2.492 0 0 0-.818-.164c-.763-.689-.684-2.962-.327-3.892zm-2.781.154c.589-.245 1.336.198 1.667.989.067.161.131.371.187.606.008.472.064.947.174 1.379 0 .515-.092.942-.344 1.047-.588.246-1.817-1.35-2.148-2.141-.332-.791-.123-1.634.464-1.88zM1.957 8.244a1.985 1.985 0 0 1 1.422-3.705c.992.38 2.894 2.008 2.653 3.039a3.23 3.23 0 0 0-.046.139c-.452.975-3.022.914-4.029.527zm5.92 6.398a1.988 1.988 0 0 1-2.565 1.141 1.988 1.988 0 0 1-1.142-2.564c.368-.958 1.905-2.776 2.937-2.676.14.083.288.15.439.203.766.688.689 2.962.331 3.896zM6.644 9.174a1.882 1.882 0 0 1 3.439-1.529 1.88 1.88 0 0 1-.871 2.436H9.21c-.005.002-.009.007-.015.01-.023.011-.043.027-.067.038a1.884 1.884 0 0 1-2.484-.955zm4.292 5.103c-.587.244-1.333-.199-1.665-.991-.237-.567-.445-1.754-.326-2.47.145-.034.287-.081.427-.142.168-.075.321-.166.463-.271.601.403 1.325 1.412 1.567 1.992.331.791.122 1.634-.466 1.882zm4.932-3.034a1.99 1.99 0 0 1-2.564 1.143c-.986-.38-2.877-1.995-2.655-3.026.026-.063.05-.126.07-.19.5-.936 3.015-.872 4.009-.491a1.987 1.987 0 0 1 1.14 2.564z" style="fill:#030104"/></svg>
