<svg xmlns="http://www.w3.org/2000/svg" xmlns:xlink="http://www.w3.org/1999/xlink"><symbol id="icon-arrow" viewBox="0 0 24 24">
  <path d="M7.41 8.59L12 13.17l4.59-4.58L18 10l-6 6-6-6 1.41-1.41z"/>
</symbol><symbol id="icon-attention" viewBox="0 0 24 24">
  <path d="M12 2C6.48 2 2 6.48 2 12s4.48 10 10 10 10-4.48 10-10S17.52 2 12 2zm0 18c-4.41 0-8-3.59-8-8s3.59-8 8-8 8 3.59 8 8-3.59 8-8 8zm1-13h-2v6h2V7zm0 8h-2v2h2v-2z"/>
</symbol><symbol id="icon-bag" viewBox="0 0 24 24">
  <path d="M18 6h-2c0-2.21-1.79-4-4-4S8 3.79 8 6H6c-1.1 0-2 .9-2 2v12c0 1.1.9 2 2 2h12c1.1 0 2-.9 2-2V8c0-1.1-.9-2-2-2zm-6-2c1.1 0 2 .9 2 2h-4c0-1.1.9-2 2-2zm6 16H6V8h2v2c0 .55.45 1 1 1s1-.45 1-1V8h4v2c0 .55.45 1 1 1s1-.45 1-1V8h2v12z"/>
</symbol><symbol id="icon-bookmark" viewBox="0 0 24 24">
  <path d="M18 2H6c-1.1 0-2 .9-2 2v16c0 1.1.9 2 2 2h12c1.1 0 2-.9 2-2V4c0-1.1-.9-2-2-2zM6 4h5v8l-2.5-1.5L6 12V4z"/>
</symbol><symbol id="icon-chevron-right" viewBox="0 0 56 56"><path d="M13.785 49.574h28.453c4.899 0 7.336-2.437 7.336-7.265V13.69c0-4.828-2.437-7.265-7.336-7.265H13.785c-4.875 0-7.36 2.414-7.36 7.265V42.31c0 4.851 2.485 7.265 7.36 7.265Zm9.914-9.422c-.75-.75-.726-1.968 0-2.625l10.125-9.539L23.7 18.496c-.773-.703-.703-1.922.024-2.648.703-.704 1.851-.657 2.625.07l10.242 9.656c1.383 1.29 1.383 3.563 0 4.852l-10.242 9.656c-.704.633-1.993.727-2.649.07Z"/></symbol><symbol id="icon-cleanmachine" viewBox="0 0 24 24">
  <path d="M18 2.01L6 2c-1.1 0-2 .89-2 2v16c0 1.1.9 2 2 2h12c1.1 0 2-.9 2-2V4c0-1.11-.9-1.99-2-1.99zM18 20H6L5.99 4H18v16z"/>
  <circle cx="8" cy="6" r="1"/>
  <circle cx="11" cy="6" r="1"/>
  <path d="M12 19c2.76 0 5-2.24 5-5s-2.24-5-5-5-5 2.24-5 5 2.24 5 5 5zm2.36-7.36c1.3 1.3 1.3 3.42 0 4.72-1.3 1.3-3.42 1.3-4.72 0l4.72-4.72z"/>
</symbol><symbol id="icon-close" viewBox="0 0 24 24"><g fill="none">
  <path fill-rule="evenodd" clip-rule="evenodd" d="M18.7071 5.29289C19.0976 5.68342 19.0976 6.31658 18.7071 6.70711L6.70711 18.7071C6.31658 19.0976 5.68342 19.0976 5.29289 18.7071C4.90237 18.3166 4.90237 17.6834 5.29289 17.2929L17.2929 5.29289C17.6834 4.90237 18.3166 4.90237 18.7071 5.29289Z" fill="currentColor"/>
  <path fill-rule="evenodd" clip-rule="evenodd" d="M5.29289 5.29289C5.68342 4.90237 6.31658 4.90237 6.70711 5.29289L18.7071 17.2929C19.0976 17.6834 19.0976 18.3166 18.7071 18.7071C18.3166 19.0976 17.6834 19.0976 17.2929 18.7071L5.29289 6.70711C4.90237 6.31658 4.90237 5.68342 5.29289 5.29289Z" fill="currentColor"/>
</g></symbol><symbol id="icon-delivery" viewBox="0 0 24 24">
  <path d="M20 8h-3V4H3c-1.1 0-2 .9-2 2v11h2c0 1.66 1.34 3 3 3s3-1.34 3-3h6c0 1.66 1.34 3 3 3s3-1.34 3-3h2v-5l-3-4zM6 18.5c-.83 0-1.5-.67-1.5-1.5s.67-1.5 1.5-1.5 1.5.67 1.5 1.5-.67 1.5-1.5 1.5zm13.5-9l1.96 2.5H17V9.5h2.5zm-1.5 9c-.83 0-1.5-.67-1.5-1.5s.67-1.5 1.5-1.5 1.5.67 1.5 1.5-.67 1.5-1.5 1.5z"/>
</symbol><symbol id="icon-dollar" viewBox="0 0 24 24">
  <path d="M12 2C6.5 2 2 6.5 2 12s4.5 10 10 10 10-4.5 10-10S17.5 2 12 2zm0 18c-4.41 0-8-3.59-8-8s3.59-8 8-8 8 3.59 8 8-3.59 8-8 8zm.31-8.86c-1.77-.45-2.34-.94-2.34-1.67 0-.84.79-1.43 2.1-1.43 1.38 0 1.9.66 1.94 1.64h1.71c-.05-1.34-.87-2.57-2.49-2.97V5H10.9v1.69c-1.51.32-2.72 1.3-2.72 2.81 0 1.79 1.49 2.69 3.66 3.21 1.95.46 2.34 1.15 2.34 1.87 0 .53-.39 1.39-2.1 1.39-1.6 0-2.23-.72-2.32-1.64H8.04c.1 1.7 1.36 2.66 2.86 2.97V19h2.34v-1.67c1.52-.29 2.72-1.16 2.73-2.77-.01-2.2-1.9-2.96-3.66-3.42z"/>
</symbol><symbol id="icon-email" viewBox="0 0 16 14">
  <path d="M1.25925 2.60026L7.25925 6.36066C7.46085 6.48666 7.72165 6.54639 7.98405 6.54639C8.24645 6.54639 8.50725 6.48666 8.70885 6.36066L14.7088 2.60026C15.1 2.35479 15.4697 1.39999 14.7521 1.39999H1.21685C0.49925 1.39999 0.86885 2.35479 1.25925 2.60026ZM14.8905 4.65639L8.70885 8.41493C8.43685 8.58106 8.24645 8.60066 7.98405 8.60066C7.72165 8.60066 7.53125 8.58106 7.25925 8.41493C6.98725 8.24879 1.55285 4.92519 1.10885 4.65546C0.79685 4.46506 0.80005 4.68813 0.80005 4.85986V11.6667C0.80005 12.0587 1.25285 12.6 1.60005 12.6H14.4001C14.7473 12.6 15.2001 12.0587 15.2001 11.6667V4.86079C15.2001 4.68906 15.2033 4.46599 14.8905 4.65639Z"/>
</symbol><symbol id="icon-headset" viewBox="0 0 24 24"><g fill="none"><path stroke="#000" stroke-linecap="round" stroke-linejoin="round" stroke-width="1.5" d="M20 11a8 8 0 1 0-16 0"/><path stroke="#000" stroke-width="1.5" d="M2 15.438v-1.876a2 2 0 0 1 1.515-1.94l1.74-.436a.6.6 0 0 1 .745.582v5.463a.6.6 0 0 1-.746.583l-1.74-.435A2 2 0 0 1 2 15.439ZM22 15.438v-1.876a2 2 0 0 0-1.515-1.94l-1.74-.436a.6.6 0 0 0-.745.582v5.463a.6.6 0 0 0 .745.583l1.74-.435A2 2 0 0 0 22 15.439ZM20 18v.5a2 2 0 0 1-2 2h-3.5"/><path stroke="#000" stroke-width="1.5" d="M13.5 22h-3a1.5 1.5 0 0 1 0-3h3a1.5 1.5 0 0 1 0 3Z"/></g></symbol><symbol id="icon-intro-mask" viewBox="0 0 1000 100" preserveAspectRatio="none">
  <path class="svg-white-bg" d="M737.9,94.7L0,0v100h1000V0L737.9,94.7z"/>
</symbol><symbol id="icon-map-marker" viewBox="0 0 24 24">
  <path d="M12 2C8.13 2 5 5.13 5 9c0 5.25 7 13 7 13s7-7.75 7-13c0-3.87-3.13-7-7-7zm0 9.5c-1.38 0-2.5-1.12-2.5-2.5s1.12-2.5 2.5-2.5 2.5 1.12 2.5 2.5-1.12 2.5-2.5 2.5z"/>
</symbol><symbol id="icon-measure" viewBox="0 0 24 24">
  <path d="M19 3H5c-1.1 0-2 .9-2 2v14c0 1.1.9 2 2 2h14c1.1 0 2-.9 2-2V5c0-1.1-.9-2-2-2zm0 16H5V5h14v14z"/>
  <path d="M7 12h2v5H7zm8-5h2v10h-2zm-4 7h2v3h-2zm0-4h2v2h-2z"/>
</symbol><symbol id="icon-nav-menu" viewBox="0 0 20 20"><path fill-rule="evenodd" d="M19 4a1 1 0 0 1-1 1H2a1 1 0 0 1 0-2h16a1 1 0 0 1 1 1zm0 6a1 1 0 0 1-1 1H2a1 1 0 1 1 0-2h16a1 1 0 0 1 1 1zm-1 7a1 1 0 1 0 0-2H2a1 1 0 1 0 0 2h16z"/></symbol><symbol id="icon-phone" viewBox="0 0 18 18">
  <path d="M8.97412 7.42388C8.97412 7.61288 9.12775 7.76138 9.3155 7.76138C9.70468 7.76138 10.0187 8.07526 10.0187 8.45663C10.0187 8.64225 10.1724 8.79413 10.3601 8.79413C10.5479 8.79413 10.7015 8.64225 10.7015 8.45663C10.7015 7.70064 10.0802 7.08638 9.3155 7.08638C9.12775 7.08638 8.97412 7.23826 8.97412 7.42388ZM14.5318 8.79413C14.723 8.79413 14.8732 8.64225 14.8732 8.45663C14.8732 5.42589 12.3811 2.96214 9.3155 2.96214C9.12775 2.96214 8.97412 3.114 8.97412 3.29964C8.97412 3.48526 9.12775 3.63714 9.3155 3.63714C12.0056 3.63714 14.1904 5.80051 14.1904 8.45663C14.1904 8.64225 14.344 8.79413 14.5318 8.79413Z"/>
  <path d="M12.1047 8.45663C12.1047 8.64225 12.2583 8.79413 12.446 8.79413C12.6338 8.79413 12.7874 8.64225 12.7874 8.45663C12.7874 6.56326 11.2307 5.02426 9.3156 5.02426C9.12785 5.02426 8.97422 5.17614 8.97422 5.36176C8.97422 5.55076 9.12785 5.69926 9.3156 5.69926C10.8552 5.69926 12.1047 6.93788 12.1047 8.45663ZM9.3156 0.900002C9.12785 0.900002 8.97422 1.05188 8.97422 1.2375C8.97422 1.42314 9.12785 1.575 9.3156 1.575C13.1561 1.575 16.2797 4.66314 16.2797 8.45663C16.2797 8.64225 16.43 8.79413 16.6211 8.79413C16.8089 8.79413 16.9625 8.64225 16.9625 8.45663C16.9625 4.28852 13.5316 0.900002 9.3156 0.900002ZM12.6509 12.0139L12.2037 12.2535C11.4492 12.6619 10.8621 13.7813 9.93111 12.9375L7.50006 10.5L5.39999 8.45663C4.3449 7.1235 5.5263 6.80625 5.93936 6.05701L6.18174 5.61827C6.45484 5.11875 6.55383 4.55851 6.47191 3.99825C6.3934 3.43801 6.13736 2.92838 5.7277 2.52338C5.2293 2.03064 4.56703 1.76064 3.86037 1.76064C3.15371 1.76064 2.48802 2.03064 1.9896 2.52338L1.81551 2.69888C0.893782 3.61014 0.787955 5.1795 1.51509 7.1235C2.20125 8.97975 3.58385 10.9913 5.39999 12.7868C8.16857 15.5239 11.2512 17.1 13.4634 17.1C14.3373 17.1 15.0781 16.8536 15.6038 16.3339L15.7813 16.1584C16.2763 15.669 16.5528 15.0143 16.5563 14.3089C16.5528 13.6204 16.2695 12.9454 15.7813 12.4628C14.9586 11.6494 13.6716 11.4671 12.6509 12.0139Z"/>
</symbol><symbol id="icon-question" viewBox="0 0 24 24">
  <path d="M11 18h2v-2h-2v2zm1-16C6.48 2 2 6.48 2 12s4.48 10 10 10 10-4.48 10-10S17.52 2 12 2zm0 18c-4.41 0-8-3.59-8-8s3.59-8 8-8 8 3.59 8 8-3.59 8-8 8zm0-14c-2.21 0-4 1.79-4 4h2c0-1.1.9-2 2-2s2 .9 2 2c0 2-3 1.75-3 5h2c0-2.25 3-2.5 3-5 0-2.21-1.79-4-4-4z"/>
</symbol><symbol id="icon-rocket" viewBox="0 0 64 64"><g fill="#231F20"><path d="m63.029 42.285-13.08-7.848c-.175 4.299-.787 8.26-1.494 11.562H64v-2c0-.702-.368-1.353-.971-1.714zM46.905 52H62a2 2 0 0 0 2-2v-2H47.999a71.624 71.624 0 0 1-1.094 4zM14.051 34.438.971 42.286A1.995 1.995 0 0 0 0 44v2h15.545c-.706-3.303-1.319-7.263-1.494-11.562zM0 48v2a2 2 0 0 0 2 2h15.095a70.844 70.844 0 0 1-1.093-4H0zM32 64c2.06 0 4.239-2.343 4.837-6h-9.672c.598 3.656 2.775 6 4.835 6zM33.109.336a1.996 1.996 0 0 0-2.218 0C23.692 5.135 16 15.974 16 32c0 4.399.516 8.508 1.181 12H46.82c.664-3.492 1.18-7.601 1.18-12C48 15.974 40.308 5.135 33.109.336zM32 30a6 6 0 0 1 0-12 6 6 0 0 1 0 12z"/><circle cx="32" cy="24" r="4"/><path d="M20.143 54.742A2 2 0 0 0 22 56h20a2 2 0 0 0 1.857-1.258c.097-.24 1.427-3.62 2.554-8.742H17.589c1.127 5.122 2.457 8.502 2.554 8.742z"/></g></symbol><symbol id="icon-russia" viewBox="0 0 24 24">
  <path d="M12 2C6.48 2 2 6.48 2 12s4.48 10 10 10 10-4.48 10-10S17.52 2 12 2zm-1 17.93c-3.95-.49-7-3.85-7-7.93 0-.62.08-1.21.21-1.79L9 15v1c0 1.1.9 2 2 2v1.93zm6.9-2.54c-.26-.81-1-1.39-1.9-1.39h-1v-3c0-.55-.45-1-1-1H8v-2h2c.55 0 1-.45 1-1V7h2c1.1 0 2-.9 2-2v-.41c2.93 1.19 5 4.06 5 7.41 0 2.08-.8 3.97-2.1 5.39z"/>
</symbol><symbol id="icon-telegram" viewBox="0 0 28 26">
  <path d="M27.26.687A2.07 2.07 0 0 0 25.164.36l-23.89 9.644a2.058 2.058 0 0 0 .105 3.846l5.154 1.789 2.794 9.235c.005.018.022.03.03.048a.653.653 0 0 0 .425.39c.014.006.023.018.037.02h.008l.004.002c.103.022.21.016.31-.016.01-.003.022-.003.034-.007a.66.66 0 0 0 .254-.163c.008-.01.022-.01.03-.018l4.017-4.435 5.863 4.54c.356.279.794.43 1.246.43.979 0 1.823-.686 2.024-1.642l4.35-21.357a2.043 2.043 0 0 0-.7-1.982v.002ZM10.784 17.393l-.943 4.583-1.966-6.504 9.753-5.08-6.663 6.664a.664.664 0 0 0-.181.337Zm11.519 6.363a.72.72 0 0 1-.463.532.7.7 0 0 1-.685-.104l-6.351-4.919a.667.667 0 0 0-.901.08l-2.796 3.082.94-4.57 9.586-9.586a.667.667 0 0 0-.778-1.063L7.037 14.405 1.815 12.59a.7.7 0 0 1-.482-.656.71.71 0 0 1 .446-.69l23.885-9.644a.715.715 0 0 1 .744.114.698.698 0 0 1 .243.69l-4.348 21.354v-.001Z"/>
</symbol><symbol id="icon-time" viewBox="0 0 24 24">
  <path d="M11.99 2C6.47 2 2 6.48 2 12s4.47 10 9.99 10C17.52 22 22 17.52 22 12S17.52 2 11.99 2zM12 20c-4.42 0-8-3.58-8-8s3.58-8 8-8 8 3.58 8 8-3.58 8-8 8zm.5-13H11v6l5.25 3.15.75-1.23-4.5-2.67z"/>
</symbol><symbol id="icon-user-profile" viewBox="0 0 12 12"><g fill="#1D1D1B"><path d="M9.3 6.535C8.479 7.43 7.309 8 6 8s-2.478-.57-3.3-1.465C1.314 7.235.5 8.613.5 10.5V12h11v-1.5c0-1.887-.815-3.265-2.2-3.965z"/><circle cx="6" cy="3.5" r="3.5"/></g></symbol><symbol id="icon-vk" viewBox="0 0 30 16">
  <path d="M23.946 15.777a4.05 4.05 0 0 1-2.08-.63 10.17 10.17 0 0 1-1.78-1.53c-.44-.44-1.17-1.18-1.45-1.18s-.48.92-.47 1.57a1.75 1.75 0 0 1-.47 1.21 2.26 2.26 0 0 1-1.22.5h-1.92a11.32 11.32 0 0 1-7.43-3c-3.68-3.37-6.84-9.81-6.97-10.09a1.34 1.34 0 0 1 .15-1.48 2.07 2.07 0 0 1 1.36-.48h4.2c.338.05.661.169.95.35.272.183.49.435.63.73a22.09 22.09 0 0 0 1.48 2.67c1.31 2 1.89 2.46 2.1 2.56.234-.937.298-1.91.19-2.87a2.702 2.702 0 0 0-.21-1.28 1.33 1.33 0 0 0-.77-.29l-.73-.69c-.14-.66.59-1.23 1.1-1.45a8.69 8.69 0 0 1 3.15-.38h.71a9.11 9.11 0 0 1 2.15.2c1.7.36 1.64 1.73 1.57 3.31 0 .46-.05 1-.05 1.62v.48c-.04.436-.009.875.09 1.3a9.09 9.09 0 0 0 2.07-2.48 20.396 20.396 0 0 0 1.52-2.8 1.58 1.58 0 0 1 1.6-.95h4.28a2 2 0 0 1 .38 0c1 0 1.59.29 1.83.85s.17 1.66-2.36 4.61l-1 1.13a7.34 7.34 0 0 0-1.24 1.59c.379.431.809.814 1.28 1.14 1.15.867 2.16 1.902 3 3.07a1.6 1.6 0 0 1 .26 1.68 2.3 2.3 0 0 1-1.88 1l-3.79.05-.23-.04Zm-5.31-4.84c.9 0 1.68.79 2.51 1.62.448.49.952.926 1.5 1.3a2.51 2.51 0 0 0 1.4.42h.1l3.8-.05c.188-.01.371-.058.54-.14l-.1-.16a13.221 13.221 0 0 0-2.68-2.72c-1.19-1-1.8-1.47-1.87-2.24-.07-.77.49-1.44 1.61-2.71l1-1.11a10.731 10.731 0 0 0 2.05-2.95 5.66 5.66 0 0 0-.67 0h-4.37a.55.55 0 0 0-.24 0 20.507 20.507 0 0 1-1.65 3.05c-1.89 2.82-2.78 3.2-3.41 3.2a1.19 1.19 0 0 1-.56-.14c-1-.57-1-1.84-.94-2.76v-.43c0-.65 0-1.21.05-1.69.08-1.68 0-1.69-.38-1.78a8.561 8.561 0 0 0-1.86-.16h-.69a13 13 0 0 0-1.9.1c.096.07.18.155.25.25.413.65.618 1.41.59 2.18.13 1.65.06 3.8-1 4.32a1.38 1.38 0 0 1-.6.13c-.93 0-1.85-.88-3.42-3.26a23.42 23.42 0 0 1-1.61-2.85l-.08-.1a1.21 1.21 0 0 0-.32-.11h-4.07c.59 1.22 3.39 6.62 6.52 9.45a10 10 0 0 0 6.42 2.63h1.85a.999.999 0 0 0 .27-.1v-.09c0-.27 0-2.6 1.58-3 .122-.048.25-.081.38-.1Z"/>
</symbol><symbol id="icq-logo" viewBox="0 0 16.683 16.683"><path d="M14.973 8.04c-.408-.156-.963-.254-1.554-.281 1.058-.447 1.649-1.448 1.32-2.235-.331-.79-1.465-1.07-2.528-.626a4.94 4.94 0 0 0-.906.52c.524-.56.951-1.191 1.149-1.71A2.67 2.67 0 0 0 10.921.261a2.672 2.672 0 0 0-3.447 1.535 4.28 4.28 0 0 0-.231.98C6.753 1.875 5.85 1.397 5.124 1.7c-.79.33-1.07 1.466-.625 2.528.03.071.066.148.104.224a4.728 4.728 0 0 0-.978-.551A2.67 2.67 0 0 0 .178 5.435a2.671 2.671 0 0 0 1.534 3.448c.304.116.691.198 1.113.247-1.04.453-1.618 1.441-1.292 2.222.33.79 1.465 1.071 2.528.626l.055-.025a4.735 4.735 0 0 0-.583 1.02 2.673 2.673 0 0 0 1.534 3.449 2.673 2.673 0 0 0 3.447-1.534c.173-.448.273-1.072.287-1.729.033.101.067.196.103.281.444 1.064 1.449 1.66 2.239 1.329.79-.33 1.07-1.464.626-2.527l-.006-.012c.443.358.902.642 1.296.793a2.675 2.675 0 0 0 3.449-1.534 2.678 2.678 0 0 0-1.535-3.449zm-2.608-2.776c.79-.33 1.634-.121 1.88.465.246.588-.198 1.335-.989 1.667-.579.242-1.806.453-2.517.316a2.33 2.33 0 0 0-.411-.811c.368-.612 1.435-1.385 2.037-1.637zM8.111 2.041A1.989 1.989 0 0 1 10.676.899a1.989 1.989 0 0 1 1.142 2.564c-.326.847-1.565 2.364-2.562 2.634a2.492 2.492 0 0 0-.818-.164c-.763-.689-.684-2.962-.327-3.892zm-2.781.154c.589-.245 1.336.198 1.667.989.067.161.131.371.187.606.008.472.064.947.174 1.379 0 .515-.092.942-.344 1.047-.588.246-1.817-1.35-2.148-2.141-.332-.791-.123-1.634.464-1.88zM1.957 8.244a1.985 1.985 0 0 1 1.422-3.705c.992.38 2.894 2.008 2.653 3.039a3.23 3.23 0 0 0-.046.139c-.452.975-3.022.914-4.029.527zm5.92 6.398a1.988 1.988 0 0 1-2.565 1.141 1.988 1.988 0 0 1-1.142-2.564c.368-.958 1.905-2.776 2.937-2.676.14.083.288.15.439.203.766.688.689 2.962.331 3.896zM6.644 9.174a1.882 1.882 0 0 1 3.439-1.529 1.88 1.88 0 0 1-.871 2.436H9.21c-.005.002-.009.007-.015.01-.023.011-.043.027-.067.038a1.884 1.884 0 0 1-2.484-.955zm4.292 5.103c-.587.244-1.333-.199-1.665-.991-.237-.567-.445-1.754-.326-2.47.145-.034.287-.081.427-.142.168-.075.321-.166.463-.271.601.403 1.325 1.412 1.567 1.992.331.791.122 1.634-.466 1.882zm4.932-3.034a1.99 1.99 0 0 1-2.564 1.143c-.986-.38-2.877-1.995-2.655-3.026.026-.063.05-.126.07-.19.5-.936 3.015-.872 4.009-.491a1.987 1.987 0 0 1 1.14 2.564z" style="fill:#030104"/></symbol></svg>